<?xml version="1.0" encoding="UTF-8"?>
<svg xmlns="http://www.w3.org/2000/svg" xmlns:xlink="http://www.w3.org/1999/xlink" width="128px" height="128px" viewBox="0 0 128 128" version="1.1">
<g id="surface1">
<path style=" stroke:none;fill-rule:evenodd;fill:rgb(0%,0.392157%,1.568627%);fill-opacity:1;" d="M 8.40625 61.976562 C 8.40625 66.808594 10.144531 69.199219 13.792969 69.199219 C 17.492188 69.199219 19.289062 66.867188 19.289062 61.976562 L 19.289062 48.167969 C 19.289062 47.722656 19.660156 47.355469 20.105469 47.355469 L 22.324219 47.355469 C 22.769531 47.355469 23.140625 47.722656 23.140625 48.167969 L 23.140625 61.921875 C 23.140625 70.828125 18.085938 72.679688 13.847656 72.679688 C 9.550781 72.679688 4.5 70.828125 4.5 61.921875 L 4.5 57.683594 C 4.5 57.238281 4.867188 56.867188 5.3125 56.867188 L 7.699219 56.867188 C 8.144531 56.867188 8.515625 57.238281 8.515625 57.683594 Z M 8.40625 61.976562 "/>
<path style=" stroke:none;fill-rule:evenodd;fill:rgb(0%,0.392157%,1.568627%);fill-opacity:1;" d="M 37.117188 53.167969 C 34.5625 53.167969 32.65625 54.425781 31.136719 55.832031 L 30.96875 54.371094 C 30.914062 53.980469 30.582031 53.648438 30.15625 53.648438 L 28.304688 53.648438 C 27.878906 53.648438 27.492188 54.035156 27.492188 54.460938 L 27.492188 71.476562 C 27.492188 71.917969 27.878906 72.289062 28.304688 72.289062 L 30.636719 72.289062 C 31.082031 72.289062 31.453125 71.917969 31.453125 71.476562 L 31.453125 59.089844 C 33.246094 57.40625 34.394531 56.589844 36.078125 56.589844 C 38.246094 56.589844 39.171875 57.832031 39.171875 60.941406 L 39.171875 71.417969 C 39.171875 71.863281 39.558594 72.234375 39.984375 72.234375 L 42.335938 72.234375 C 42.761719 72.234375 43.152344 71.863281 43.152344 71.417969 L 43.152344 60.550781 C 43.152344 55.664062 41.078125 53.167969 37.117188 53.167969 Z M 37.117188 53.167969 "/>
<path style=" stroke:none;fill-rule:evenodd;fill:rgb(0%,0.392157%,1.568627%);fill-opacity:1;" d="M 51.40625 53.59375 L 49.074219 53.59375 C 48.632812 53.59375 48.261719 53.980469 48.261719 54.425781 L 48.261719 71.417969 C 48.261719 71.863281 48.632812 72.234375 49.074219 72.234375 L 51.40625 72.234375 C 51.851562 72.234375 52.222656 71.863281 52.222656 71.417969 L 52.222656 54.425781 C 52.222656 53.980469 51.851562 53.59375 51.40625 53.59375 Z M 51.40625 53.59375 "/>
<path style=" stroke:none;fill-rule:evenodd;fill:rgb(0%,0.392157%,1.568627%);fill-opacity:1;" d="M 67.011719 69.253906 C 66.957031 69.140625 66.902344 69.03125 66.792969 68.976562 C 66.679688 68.921875 66.570312 68.921875 66.457031 68.976562 C 66.367188 69.03125 66.308594 69.03125 66.199219 69.085938 C 65.496094 69.308594 64.941406 69.476562 64.515625 69.476562 C 62.773438 69.476562 62.070312 68.605469 62.070312 66.421875 L 62.070312 56.867188 L 66.253906 56.867188 C 66.679688 56.867188 67.070312 56.480469 67.070312 56.054688 L 67.070312 54.371094 C 67.070312 53.925781 66.679688 53.554688 66.253906 53.554688 L 62.070312 53.554688 L 62.070312 49.371094 C 62.070312 48.925781 61.683594 48.558594 61.238281 48.558594 L 59.40625 48.558594 C 58.960938 48.558594 58.644531 48.871094 58.589844 49.316406 L 58.257812 53.59375 L 56.089844 53.757812 C 55.648438 53.757812 55.3125 54.148438 55.3125 54.574219 L 55.3125 56.109375 C 55.3125 56.535156 55.703125 56.925781 56.128906 56.925781 L 58.089844 56.925781 L 58.089844 66.308594 C 58.089844 70.492188 59.996094 72.679688 63.753906 72.679688 C 64.625 72.679688 65.644531 72.511719 66.902344 72.121094 C 67.328125 72.03125 67.550781 71.585938 67.4375 71.160156 Z M 67.011719 69.253906 "/>
<path style=" stroke:none;fill-rule:evenodd;fill:rgb(0%,0.392157%,1.568627%);fill-opacity:1;" d="M 79.675781 53.167969 C 77.878906 53.167969 75.972656 53.925781 74.03125 55.386719 L 73.863281 54.3125 C 73.808594 53.925781 73.472656 53.59375 73.046875 53.59375 L 71.195312 53.59375 C 70.753906 53.59375 70.382812 53.980469 70.382812 54.425781 L 70.382812 78.972656 C 70.382812 79.417969 70.753906 79.785156 71.195312 79.785156 L 73.53125 79.785156 C 73.972656 79.785156 74.34375 79.417969 74.34375 78.972656 L 74.34375 73.324219 L 74.289062 71.050781 C 75.917969 72.121094 77.492188 72.679688 78.972656 72.679688 C 83.15625 72.679688 87.339844 69.253906 87.339844 62.679688 C 87.339844 56.703125 84.507812 53.167969 79.675781 53.167969 Z M 74.34375 58.703125 C 76.140625 57.183594 77.546875 56.535156 78.859375 56.535156 C 81.785156 56.535156 83.324219 58.609375 83.324219 62.679688 C 83.324219 66.644531 81.359375 69.363281 78.472656 69.363281 C 77.230469 69.363281 75.714844 68.753906 74.398438 67.679688 L 74.398438 58.703125 Z M 74.34375 58.703125 "/>
<path style=" stroke:none;fill-rule:evenodd;fill:rgb(25.882353%,60.392157%,22.745098%);fill-opacity:1;" d="M 50.539062 46.039062 C 49.128906 46.003906 47.761719 45.558594 47.058594 45.28125 C 46.722656 45.1875 46.410156 45.019531 46.242188 45.019531 C 46.132812 45.019531 46.019531 45.078125 45.910156 45.1875 C 45.855469 45.226562 45.761719 45.445312 45.855469 45.722656 C 46.019531 46.039062 46.574219 47.355469 47.445312 48.558594 C 48.316406 49.742188 49.335938 50.832031 50.539062 50.832031 C 52.109375 50.832031 51.890625 49.742188 51.890625 48.390625 C 51.890625 47.019531 52.054688 46.039062 50.539062 46.039062 Z M 50.539062 46.039062 "/>
<path style=" stroke:none;fill-rule:evenodd;fill:rgb(25.882353%,60.392157%,22.745098%);fill-opacity:1;" d="M 45.855469 45.722656 C 45.855469 45.835938 46.519531 47.722656 47.390625 48.925781 C 48.261719 50.128906 49.390625 50.890625 50.539062 50.890625 L 50.648438 50.890625 C 50.703125 50.890625 50.816406 50.890625 50.871094 50.890625 C 52.054688 50.722656 52.980469 49.742188 52.980469 48.558594 C 52.980469 47.410156 52.167969 46.429688 51.019531 46.207031 C 50.871094 46.148438 50.703125 46.148438 50.480469 46.148438 C 49.074219 46.09375 47.707031 45.667969 47 45.390625 C 46.6875 45.28125 46.355469 45.132812 46.1875 45.132812 C 46.132812 45.132812 46.078125 45.132812 46.019531 45.1875 C 45.964844 45.1875 45.910156 45.226562 45.910156 45.28125 C 45.910156 45.28125 45.855469 45.335938 45.855469 45.390625 L 45.855469 45.503906 C 45.855469 45.503906 45.855469 45.558594 45.855469 45.722656 C 45.855469 45.613281 45.855469 45.613281 45.855469 45.722656 Z M 45.855469 45.722656 "/>
<path style=" stroke:none;fill-rule:evenodd;fill:rgb(0%,0.392157%,1.568627%);fill-opacity:1;" d="M 7.644531 52.945312 L 5.257812 52.945312 C 4.832031 52.945312 4.441406 52.574219 4.441406 52.128906 L 4.441406 48.167969 C 4.441406 47.722656 4.832031 47.355469 5.257812 47.355469 L 7.644531 47.355469 C 8.089844 47.355469 8.460938 47.722656 8.460938 48.167969 L 8.460938 52.128906 C 8.40625 52.574219 8.089844 52.945312 7.644531 52.945312 Z M 7.644531 52.945312 "/>
<path style=" stroke:none;fill-rule:evenodd;fill:rgb(0%,0.392157%,1.568627%);fill-opacity:1;" d="M 67.550781 71.160156 L 67.273438 70.066406 L 67.179688 69.679688 C 67.070312 69.253906 66.625 69.03125 66.199219 69.140625 L 65.699219 69.253906 C 65.273438 69.363281 64.882812 69.417969 64.570312 69.417969 C 62.828125 69.417969 62.109375 68.550781 62.109375 66.367188 L 62.109375 56.867188 L 66.308594 56.867188 C 66.734375 56.867188 67.125 56.480469 67.125 56.054688 L 67.125 54.371094 C 67.125 53.925781 66.734375 53.554688 66.308594 53.554688 L 62.109375 53.554688 L 62.109375 49.371094 C 62.109375 48.925781 61.738281 48.558594 61.292969 48.558594 L 59.460938 48.558594 C 59.015625 48.558594 58.683594 48.871094 58.644531 49.316406 L 58.3125 53.59375 L 56.128906 53.757812 C 55.703125 53.757812 55.371094 54.148438 55.371094 54.574219 L 55.371094 56.109375 C 55.371094 56.535156 55.757812 56.925781 56.183594 56.925781 L 58.144531 56.925781 L 58.144531 66.308594 C 58.144531 70.492188 60.054688 72.679688 63.8125 72.679688 C 64.664062 72.679688 65.699219 72.511719 66.957031 72.121094 C 67.382812 71.972656 67.660156 71.53125 67.550781 71.160156 Z M 67.550781 71.160156 "/>
<path style=" stroke:none;fill-rule:evenodd;fill:rgb(0%,0.392157%,1.568627%);fill-opacity:1;" d="M 98.261719 53.167969 C 95.929688 53.167969 93.539062 53.871094 91.152344 55.332031 C 90.765625 55.554688 90.652344 56.054688 90.875 56.425781 L 91.355469 57.238281 L 91.691406 57.832031 C 91.910156 58.21875 92.394531 58.332031 92.78125 58.109375 L 92.984375 57.996094 L 93.042969 57.941406 C 94.671875 56.960938 96.261719 56.480469 97.726562 56.480469 C 99.890625 56.480469 100.984375 57.683594 101.09375 60.183594 C 93.207031 61.109375 89.78125 63.164062 89.78125 67.179688 C 89.78125 70.4375 92.117188 72.679688 95.597656 72.679688 C 97.503906 72.679688 99.410156 71.917969 101.464844 70.382812 L 101.628906 71.53125 C 101.6875 71.917969 102.019531 72.234375 102.445312 72.234375 L 104.296875 72.234375 C 104.742188 72.234375 105.109375 71.863281 105.109375 71.417969 L 105.109375 60.886719 C 105.054688 55.832031 102.722656 53.167969 98.261719 53.167969 Z M 101.09375 67.292969 C 99.574219 68.605469 98.152344 69.476562 96.464844 69.476562 C 95.390625 69.476562 93.652344 69.140625 93.652344 67.011719 C 93.652344 65.605469 94.523438 63.867188 101.09375 62.996094 Z M 101.09375 67.292969 "/>
<path style=" stroke:none;fill-rule:evenodd;fill:rgb(0%,0.392157%,1.568627%);fill-opacity:1;" d="M 124.140625 54.3125 C 124.140625 53.871094 123.863281 53.59375 123.4375 53.59375 L 121.199219 53.59375 C 120.882812 53.59375 120.550781 53.8125 120.4375 54.148438 L 117.292969 63.753906 C 117.125 64.367188 116.902344 64.957031 116.753906 65.605469 C 116.53125 66.367188 116.3125 67.125 116.03125 67.847656 C 115.605469 66.585938 115.070312 65.070312 114.570312 63.699219 L 110.921875 54.09375 C 110.8125 53.8125 110.554688 53.59375 110.164062 53.59375 L 107.777344 53.59375 C 107.351562 53.59375 106.960938 53.980469 106.960938 54.425781 C 106.960938 54.519531 106.960938 54.628906 107.019531 54.683594 L 114.144531 71.863281 L 113.757812 72.992188 C 113.21875 74.621094 112.070312 76.527344 109.960938 76.527344 C 109.792969 76.527344 109.628906 76.527344 109.40625 76.472656 C 109.351562 76.472656 109.351562 76.472656 109.292969 76.472656 L 108.980469 76.417969 C 108.535156 76.304688 108.109375 76.585938 108 76.972656 L 107.832031 77.621094 L 107.554688 78.601562 C 107.445312 79.027344 107.664062 79.417969 108.109375 79.582031 C 108.703125 79.730469 109.351562 79.84375 110.054688 79.84375 C 114.460938 79.84375 116.3125 76.160156 117.347656 73.382812 L 124.085938 54.628906 C 124.140625 54.460938 124.140625 54.371094 124.140625 54.3125 Z M 124.140625 54.3125 "/>
</g>
</svg>
